<?xml version="1.0" encoding="UTF-8" standalone="no"?>
<!-- Created with Inkscape (http://www.inkscape.org/) -->

<svg
   width="280.8931"
   height="95.063896"
   viewBox="0 0 74.31963 25.152324"
   version="1.1"
   id="svg5"
   inkscape:version="1.1.1 (3bf5ae0d25, 2021-09-20, custom)"
   sodipodi:docname="logo.svg"
   xmlns:inkscape="http://www.inkscape.org/namespaces/inkscape"
   xmlns:sodipodi="http://sodipodi.sourceforge.net/DTD/sodipodi-0.dtd"
   xmlns:xlink="http://www.w3.org/1999/xlink"
   xmlns="http://www.w3.org/2000/svg"
   xmlns:svg="http://www.w3.org/2000/svg">
  <sodipodi:namedview
     id="namedview7"
     pagecolor="#505050"
     bordercolor="#ffffff"
     borderopacity="1"
     inkscape:pageshadow="0"
     inkscape:pageopacity="0"
     inkscape:pagecheckerboard="1"
     inkscape:document-units="mm"
     showgrid="false"
     units="px"
     inkscape:zoom="1.4142136"
     inkscape:cx="73.185552"
     inkscape:cy="-28.637825"
     inkscape:window-width="1920"
     inkscape:window-height="1002"
     inkscape:window-x="0"
     inkscape:window-y="27"
     inkscape:window-maximized="1"
     inkscape:current-layer="layer1"
     showguides="false"
     inkscape:snap-text-baseline="true"
     showborder="true"
     fit-margin-top="0"
     fit-margin-left="0"
     fit-margin-right="0"
     fit-margin-bottom="0">
    <inkscape:grid
       type="xygrid"
       id="grid824"
       spacingx="1.0583333"
       spacingy="1.0583333"
       empspacing="1"
       empcolor="#c1ff3f"
       empopacity="0.25098039"
       snapvisiblegridlinesonly="true"
       dotted="false"
       originx="3.2279166"
       originy="3.9327392" />
  </sodipodi:namedview>
  <defs
     id="defs2">
    <linearGradient
       inkscape:collect="always"
       id="linearGradient4097">
      <stop
         style="stop-color:#dfdfdf;stop-opacity:1"
         offset="0"
         id="stop4093" />
      <stop
         style="stop-color:#dfdfdf;stop-opacity:0"
         offset="1"
         id="stop4095" />
    </linearGradient>
    <linearGradient
       inkscape:collect="always"
       id="linearGradient2238">
      <stop
         style="stop-color:#6f6f6f;stop-opacity:1"
         offset="0"
         id="stop2234" />
      <stop
         style="stop-color:#4f4f4f;stop-opacity:1"
         offset="0.49000001"
         id="stop2756" />
      <stop
         style="stop-color:#3a3a3a;stop-opacity:1"
         offset="0.5"
         id="stop3014" />
      <stop
         style="stop-color:#232323;stop-opacity:1"
         offset="1"
         id="stop2236" />
    </linearGradient>
    <linearGradient
       inkscape:collect="always"
       xlink:href="#linearGradient2238"
       id="linearGradient4390"
       gradientUnits="userSpaceOnUse"
       x1="32"
       y1="8"
       x2="32"
       y2="48"
       gradientTransform="scale(0.26458333)" />
    <radialGradient
       inkscape:collect="always"
       xlink:href="#linearGradient4097"
       id="radialGradient4099"
       cx="7.9375"
       cy="5.8208332"
       fx="7.9375"
       fy="5.8208332"
       r="4.7624998"
       gradientTransform="matrix(1.4444444,0,0,0.77777777,-3.5277772,1.2935184)"
       gradientUnits="userSpaceOnUse" />
    <radialGradient
       inkscape:collect="always"
       xlink:href="#linearGradient4097"
       id="radialGradient6771"
       cx="6.8791666"
       cy="8.9958324"
       fx="6.8791666"
       fy="8.9958324"
       r="3.7041664"
       gradientTransform="matrix(1.2857143,0,0,1,-1.9654762,4.8053034e-7)"
       gradientUnits="userSpaceOnUse" />
    <filter
       inkscape:collect="always"
       style="color-interpolation-filters:sRGB"
       id="filter7595"
       x="-0.28928571"
       y="-0.31153846"
       width="1.5785714"
       height="1.6230769">
      <feGaussianBlur
         inkscape:collect="always"
         stdDeviation="6.7500001"
         id="feGaussianBlur7597" />
    </filter>
    <filter
       inkscape:collect="always"
       style="color-interpolation-filters:sRGB"
       id="filter8311"
       x="-0.17495638"
       y="-1.051573"
       width="1.3499128"
       height="3.103146">
      <feGaussianBlur
         inkscape:collect="always"
         stdDeviation="3.2026544"
         id="feGaussianBlur8313" />
    </filter>
  </defs>
  <g
     inkscape:label="Layer 1"
     inkscape:groupmode="layer"
     id="layer1"
     transform="translate(3.2279167,3.932739)">
    <g
       aria-label="Smoothie"
       id="text8220"
       style="font-size:10.0542px;line-height:1.25;font-family:Rubik;-inkscape-font-specification:Rubik;fill:#000000;fill-opacity:0.5;stroke:none;stroke-width:0.264583;filter:url(#filter8311)"
       transform="translate(0,-1.0583333)">
      <path
         d="m 22.18691,12.121368 q -0.874716,0 -1.467914,-0.261409 -0.593197,-0.271463 -0.914932,-0.69374 -0.31168,-0.43233 -0.331788,-0.914932 0,-0.08043 0.06032,-0.140759 0.07038,-0.07038 0.160867,-0.07038 h 0.512764 q 0.120651,0 0.180976,0.06033 0.06032,0.06033 0.08043,0.140759 0.05027,0.241301 0.241301,0.482602 0.201084,0.231246 0.552981,0.392113 0.361951,0.150813 0.924987,0.150813 0.864661,0 1.266829,-0.301626 0.412222,-0.31168 0.412222,-0.824444 0,-0.3518971 -0.221192,-0.5630353 Q 23.433631,9.3564633 22.991246,9.1855419 22.548861,9.0146205 21.845067,8.8135365 21.11111,8.6023983 20.628509,8.3510433 20.145907,8.0996883 19.904606,7.7276829 19.67336,7.3556775 19.67336,6.782588 q 0,-0.5429268 0.291571,-0.9652032 0.291572,-0.4323306 0.834499,-0.6836856 0.552981,-0.251355 1.337209,-0.251355 0.62336,0 1.085853,0.1709214 0.472548,0.1608672 0.784228,0.4423848 0.31168,0.2714634 0.472547,0.5931978 0.160868,0.3116802 0.170922,0.6133062 0,0.070379 -0.05027,0.1407589 -0.05027,0.060325 -0.160867,0.060325 h -0.532873 q -0.07038,0 -0.150813,-0.040217 Q 23.684986,6.8228043 23.64477,6.7122082 23.58445,6.299986 23.182277,6.0184684 22.780109,5.7369508 22.13664,5.7369508 q -0.653523,0 -1.065746,0.251355 -0.402168,0.251355 -0.402168,0.7842276 0,0.3418429 0.19103,0.5730895 0.19103,0.2211924 0.603252,0.3921138 0.412222,0.1709214 1.0758,0.3619512 0.804336,0.2211924 1.3171,0.4725474 0.512764,0.2413008 0.754065,0.6133062 0.251355,0.3619512 0.251355,0.9350415 0,0.633414 -0.331789,1.085853 -0.331788,0.442385 -0.93504,0.683686 -0.593198,0.231246 -1.407588,0.231246 z"
         id="path8222"
         style="fill:#000000;fill-opacity:0.5;stroke:none" />
      <path
         d="m 26.278966,12.020826 q -0.100542,0 -0.170921,-0.06032 -0.06032,-0.07038 -0.06032,-0.170921 V 7.0238889 q 0,-0.100542 0.06032,-0.1608672 0.07038,-0.070379 0.170921,-0.070379 h 0.452439 q 0.100542,0 0.160868,0.070379 0.07038,0.060325 0.07038,0.1608672 v 0.351897 q 0.231247,-0.3116802 0.583144,-0.4926558 0.351897,-0.1910299 0.844552,-0.1910299 1.136125,-0.010054 1.608673,0.9249865 0.231246,-0.4222764 0.673631,-0.6736314 0.442385,-0.2513551 1.00542,-0.2513551 0.522818,0 0.945095,0.2413009 0.43233,0.2413008 0.673631,0.7339566 0.251355,0.4826016 0.251355,1.2165582 V 11.78958 q 0,0.100542 -0.07038,0.170921 -0.06032,0.06032 -0.160867,0.06032 h -0.472548 q -0.100542,0 -0.170921,-0.06032 -0.06032,-0.07038 -0.06032,-0.170921 V 8.9744037 q 0,-0.5630352 -0.160868,-0.8847696 -0.160867,-0.3217344 -0.43233,-0.452439 -0.271464,-0.1307046 -0.593198,-0.1307046 -0.261409,0 -0.532873,0.1307046 -0.271463,0.1307046 -0.452439,0.452439 -0.170921,0.3217344 -0.170921,0.8847696 V 11.78958 q 0,0.100542 -0.07038,0.170921 -0.06033,0.06032 -0.160868,0.06032 H 29.56669 q -0.100542,0 -0.170921,-0.06032 -0.06033,-0.07038 -0.06033,-0.170921 V 8.9744037 q 0,-0.5630352 -0.170921,-0.8847696 Q 28.9936,7.7678997 28.722137,7.6371951 28.450674,7.5064905 28.149048,7.5064905 q -0.26141,0 -0.532873,0.1307046 -0.271463,0.1307046 -0.452439,0.452439 -0.170921,0.3217344 -0.170921,0.8747154 V 11.78958 q 0,0.100542 -0.07038,0.170921 -0.06032,0.06032 -0.160867,0.06032 z"
         id="path8224"
         style="fill:#000000;fill-opacity:0.5;stroke:none" />
      <path
         d="m 37.127448,12.121368 q -0.764119,0 -1.276883,-0.291571 -0.512764,-0.291572 -0.784228,-0.804336 -0.271463,-0.522819 -0.301626,-1.1863961 -0.01005,-0.1709214 -0.01005,-0.4323306 0,-0.2714634 0.01005,-0.4323306 0.03016,-0.6736314 0.301626,-1.1863956 0.281518,-0.5127642 0.794282,-0.804336 0.512764,-0.2915719 1.266829,-0.2915719 0.754065,0 1.266829,0.2915719 0.512765,0.2915718 0.784228,0.804336 0.281518,0.5127642 0.31168,1.1863956 0.01006,0.1608672 0.01006,0.4323306 0,0.2614092 -0.01006,0.4323306 -0.03016,0.6635771 -0.301626,1.1863961 -0.271463,0.512764 -0.784227,0.804336 -0.512765,0.291571 -1.276884,0.291571 z m 0,-0.774173 q 0.623361,0 0.995366,-0.392114 0.372005,-0.402168 0.402168,-1.1662871 0.01005,-0.150813 0.01005,-0.3820596 0,-0.2312466 -0.01005,-0.3820596 -0.03016,-0.7641192 -0.402168,-1.156233 -0.372005,-0.402168 -0.995366,-0.402168 -0.62336,0 -1.00542,0.402168 -0.372005,0.3921138 -0.392114,1.156233 -0.01005,0.150813 -0.01005,0.3820596 0,0.2312466 0.01005,0.3820596 0.02011,0.7641191 0.392114,1.1662871 0.38206,0.392114 1.00542,0.392114 z"
         id="path8226"
         style="fill:#000000;fill-opacity:0.5;stroke:none" />
      <path
         d="m 42.898552,12.121368 q -0.764119,0 -1.276883,-0.291571 -0.512765,-0.291572 -0.784228,-0.804336 -0.271463,-0.522819 -0.301626,-1.1863961 -0.01005,-0.1709214 -0.01005,-0.4323306 0,-0.2714634 0.01005,-0.4323306 0.03016,-0.6736314 0.301626,-1.1863956 0.281518,-0.5127642 0.794282,-0.804336 0.512764,-0.2915719 1.266829,-0.2915719 0.754065,0 1.266829,0.2915719 0.512765,0.2915718 0.784228,0.804336 0.281518,0.5127642 0.31168,1.1863956 0.01005,0.1608672 0.01005,0.4323306 0,0.2614092 -0.01005,0.4323306 -0.03016,0.6635771 -0.301626,1.1863961 -0.271463,0.512764 -0.784227,0.804336 -0.512765,0.291571 -1.276884,0.291571 z m 0,-0.774173 q 0.623361,0 0.995366,-0.392114 0.372005,-0.402168 0.402168,-1.1662871 0.01005,-0.150813 0.01005,-0.3820596 0,-0.2312466 -0.01005,-0.3820596 -0.03016,-0.7641192 -0.402168,-1.156233 -0.372005,-0.402168 -0.995366,-0.402168 -0.62336,0 -1.00542,0.402168 -0.372005,0.3921138 -0.392114,1.156233 -0.01005,0.150813 -0.01005,0.3820596 0,0.2312466 0.01005,0.3820596 0.02011,0.7641191 0.392114,1.1662871 0.38206,0.392114 1.00542,0.392114 z"
         id="path8228"
         style="fill:#000000;fill-opacity:0.5;stroke:none" />
      <path
         d="m 48.5201,12.020826 q -0.563035,0 -0.914932,-0.211138 -0.351897,-0.221192 -0.512765,-0.613306 -0.160867,-0.402168 -0.160867,-0.945095 V 7.5969783 h -0.784227 q -0.100542,0 -0.170922,-0.060325 -0.06033,-0.070379 -0.06033,-0.1709214 v -0.341843 q 0,-0.100542 0.06033,-0.1608672 0.07038,-0.070379 0.170922,-0.070379 h 0.784227 V 5.1135908 q 0,-0.100542 0.06032,-0.1608672 0.07038,-0.070379 0.170922,-0.070379 h 0.472547 q 0.100542,0 0.160867,0.070379 0.07038,0.060325 0.07038,0.1608672 v 1.6790515 h 1.246721 q 0.100542,0 0.160867,0.070379 0.07038,0.060325 0.07038,0.1608672 v 0.3418428 q 0,0.100542 -0.07038,0.1709214 -0.06033,0.060325 -0.160867,0.060325 h -1.246721 v 2.5839293 q 0,0.472547 0.160867,0.744011 0.160867,0.271463 0.573089,0.271463 h 0.613307 q 0.100542,0 0.160867,0.07038 0.07038,0.06033 0.07038,0.160868 v 0.361951 q 0,0.100542 -0.07038,0.170921 -0.06032,0.06032 -0.160867,0.06032 z"
         id="path8230"
         style="fill:#000000;fill-opacity:0.5;stroke:none" />
      <path
         d="m 50.651598,12.020826 q -0.100542,0 -0.170921,-0.06032 -0.06033,-0.07038 -0.06033,-0.170921 V 5.1135908 q 0,-0.100542 0.06033,-0.1608672 0.07038,-0.070379 0.170921,-0.070379 h 0.50271 q 0.110596,0 0.170921,0.070379 0.06033,0.060325 0.06033,0.1608672 v 2.3426287 q 0.271463,-0.3418428 0.663577,-0.552981 0.392114,-0.2111383 0.995366,-0.2111383 0.653523,0 1.105962,0.2915719 0.462493,0.2815176 0.69374,0.7942818 0.2413,0.50271 0.2413,1.1763414 V 11.78958 q 0,0.100542 -0.06033,0.170921 -0.06032,0.06032 -0.170921,0.06032 h -0.50271 q -0.100542,0 -0.170922,-0.06032 -0.06032,-0.07038 -0.06032,-0.170921 V 9.0045663 q 0,-0.703794 -0.341843,-1.0959078 -0.341842,-0.402168 -1.00542,-0.402168 -0.62336,0 -1.00542,0.402168 -0.382059,0.3921138 -0.382059,1.0959078 V 11.78958 q 0,0.100542 -0.06033,0.170921 -0.06032,0.06032 -0.170921,0.06032 z"
         id="path8232"
         style="fill:#000000;fill-opacity:0.5;stroke:none" />
      <path
         d="m 56.764545,12.020826 q -0.100542,0 -0.170921,-0.06032 -0.06033,-0.07038 -0.06033,-0.170921 V 7.0238889 q 0,-0.100542 0.06033,-0.1608672 0.07038,-0.070379 0.170921,-0.070379 h 0.482602 q 0.100542,0 0.160867,0.070379 0.06032,0.060325 0.06032,0.1608672 V 11.78958 q 0,0.100542 -0.06032,0.170921 -0.06032,0.06032 -0.160867,0.06032 z m -0.08043,-6.2034412 q -0.100542,0 -0.170921,-0.060325 -0.06032,-0.070379 -0.06032,-0.1709214 v -0.542927 q 0,-0.100542 0.06032,-0.1608672 0.07038,-0.070379 0.170921,-0.070379 h 0.633415 q 0.100542,0 0.160867,0.070379 0.07038,0.060325 0.07038,0.1608672 v 0.5429268 q 0,0.100542 -0.07038,0.1709214 -0.06032,0.060325 -0.160867,0.060325 z"
         id="path8234"
         style="fill:#000000;fill-opacity:0.5;stroke:none" />
      <path
         d="m 61.062714,12.121368 q -1.035582,0 -1.648889,-0.633414 -0.613306,-0.643469 -0.673631,-1.7494311 -0.01005,-0.1307046 -0.01005,-0.3317886 0,-0.2111382 0.01005,-0.3418428 0.04022,-0.7138482 0.331789,-1.2467208 0.291571,-0.5429268 0.794281,-0.8344986 0.512765,-0.2915719 1.19645,-0.2915719 0.764119,0 1.276884,0.3217345 0.522818,0.3217344 0.794281,0.9149322 0.271464,0.5931978 0.271464,1.3874796 v 0.1709214 q 0,0.1105962 -0.07038,0.1709214 -0.06032,0.060325 -0.160867,0.060325 h -3.478753 q 0,0.010054 0,0.040217 0,0.030163 0,0.050271 0.02011,0.4122227 0.180976,0.7741737 0.160867,0.351897 0.462493,0.573089 0.301626,0.221193 0.723902,0.221193 0.361951,0 0.603252,-0.110597 0.241301,-0.110596 0.392114,-0.2413 0.150813,-0.140759 0.201084,-0.211139 0.09049,-0.130704 0.140759,-0.150813 0.05027,-0.03016 0.160867,-0.03016 h 0.482602 q 0.100542,0 0.160867,0.06032 0.07038,0.05027 0.06032,0.150813 -0.01005,0.150813 -0.160867,0.372005 -0.150813,0.211139 -0.432331,0.422277 -0.281517,0.211138 -0.683685,0.351897 -0.402168,0.130704 -0.924987,0.130704 z M 59.695343,9.0246747 h 2.754851 v -0.030163 q 0,-0.452439 -0.170922,-0.804336 -0.160867,-0.351897 -0.472547,-0.552981 -0.31168,-0.2111382 -0.744011,-0.2111382 -0.43233,0 -0.744011,0.2111382 -0.301626,0.201084 -0.462493,0.552981 -0.160867,0.351897 -0.160867,0.804336 z"
         id="path8236"
         style="fill:#000000;fill-opacity:0.5;stroke:none" />
    </g>
    <g
       aria-label="Smoothie"
       id="g8429"
       style="font-size:10.0542px;line-height:1.25;font-family:Rubik;-inkscape-font-specification:Rubik;fill:#000000;fill-opacity:0.7;stroke:none;stroke-width:0.264583;filter:url(#filter8311)">
      <path
         d="m 22.18691,12.121368 q -0.874716,0 -1.467914,-0.261409 -0.593197,-0.271463 -0.914932,-0.69374 -0.31168,-0.43233 -0.331788,-0.914932 0,-0.08043 0.06032,-0.140759 0.07038,-0.07038 0.160867,-0.07038 h 0.512764 q 0.120651,0 0.180976,0.06033 0.06032,0.06033 0.08043,0.140759 0.05027,0.241301 0.241301,0.482602 0.201084,0.231246 0.552981,0.392113 0.361951,0.150813 0.924987,0.150813 0.864661,0 1.266829,-0.301626 0.412222,-0.31168 0.412222,-0.824444 0,-0.3518971 -0.221192,-0.5630353 Q 23.433631,9.3564633 22.991246,9.1855419 22.548861,9.0146205 21.845067,8.8135365 21.11111,8.6023983 20.628509,8.3510433 20.145907,8.0996883 19.904606,7.7276829 19.67336,7.3556775 19.67336,6.782588 q 0,-0.5429268 0.291571,-0.9652032 0.291572,-0.4323306 0.834499,-0.6836856 0.552981,-0.251355 1.337209,-0.251355 0.62336,0 1.085853,0.1709214 0.472548,0.1608672 0.784228,0.4423848 0.31168,0.2714634 0.472547,0.5931978 0.160868,0.3116802 0.170922,0.6133062 0,0.070379 -0.05027,0.1407589 -0.05027,0.060325 -0.160867,0.060325 h -0.532873 q -0.07038,0 -0.150813,-0.040217 Q 23.684986,6.8228043 23.64477,6.7122082 23.58445,6.299986 23.182277,6.0184684 22.780109,5.7369508 22.13664,5.7369508 q -0.653523,0 -1.065746,0.251355 -0.402168,0.251355 -0.402168,0.7842276 0,0.3418429 0.19103,0.5730895 0.19103,0.2211924 0.603252,0.3921138 0.412222,0.1709214 1.0758,0.3619512 0.804336,0.2211924 1.3171,0.4725474 0.512764,0.2413008 0.754065,0.6133062 0.251355,0.3619512 0.251355,0.9350415 0,0.633414 -0.331789,1.085853 -0.331788,0.442385 -0.93504,0.683686 -0.593198,0.231246 -1.407588,0.231246 z"
         id="path8413"
         style="fill:#000000;fill-opacity:0.7;stroke:none" />
      <path
         d="m 26.278966,12.020826 q -0.100542,0 -0.170921,-0.06032 -0.06032,-0.07038 -0.06032,-0.170921 V 7.0238889 q 0,-0.100542 0.06032,-0.1608672 0.07038,-0.070379 0.170921,-0.070379 h 0.452439 q 0.100542,0 0.160868,0.070379 0.07038,0.060325 0.07038,0.1608672 v 0.351897 q 0.231247,-0.3116802 0.583144,-0.4926558 0.351897,-0.1910299 0.844552,-0.1910299 1.136125,-0.010054 1.608673,0.9249865 0.231246,-0.4222764 0.673631,-0.6736314 0.442385,-0.2513551 1.00542,-0.2513551 0.522818,0 0.945095,0.2413009 0.43233,0.2413008 0.673631,0.7339566 0.251355,0.4826016 0.251355,1.2165582 V 11.78958 q 0,0.100542 -0.07038,0.170921 -0.06032,0.06032 -0.160867,0.06032 h -0.472548 q -0.100542,0 -0.170921,-0.06032 -0.06032,-0.07038 -0.06032,-0.170921 V 8.9744037 q 0,-0.5630352 -0.160868,-0.8847696 -0.160867,-0.3217344 -0.43233,-0.452439 -0.271464,-0.1307046 -0.593198,-0.1307046 -0.261409,0 -0.532873,0.1307046 -0.271463,0.1307046 -0.452439,0.452439 -0.170921,0.3217344 -0.170921,0.8847696 V 11.78958 q 0,0.100542 -0.07038,0.170921 -0.06033,0.06032 -0.160868,0.06032 H 29.56669 q -0.100542,0 -0.170921,-0.06032 -0.06033,-0.07038 -0.06033,-0.170921 V 8.9744037 q 0,-0.5630352 -0.170921,-0.8847696 Q 28.9936,7.7678997 28.722137,7.6371951 28.450674,7.5064905 28.149048,7.5064905 q -0.26141,0 -0.532873,0.1307046 -0.271463,0.1307046 -0.452439,0.452439 -0.170921,0.3217344 -0.170921,0.8747154 V 11.78958 q 0,0.100542 -0.07038,0.170921 -0.06032,0.06032 -0.160867,0.06032 z"
         id="path8415"
         style="fill:#000000;fill-opacity:0.7;stroke:none" />
      <path
         d="m 37.127448,12.121368 q -0.764119,0 -1.276883,-0.291571 -0.512764,-0.291572 -0.784228,-0.804336 -0.271463,-0.522819 -0.301626,-1.1863961 -0.01005,-0.1709214 -0.01005,-0.4323306 0,-0.2714634 0.01005,-0.4323306 0.03016,-0.6736314 0.301626,-1.1863956 0.281518,-0.5127642 0.794282,-0.804336 0.512764,-0.2915719 1.266829,-0.2915719 0.754065,0 1.266829,0.2915719 0.512765,0.2915718 0.784228,0.804336 0.281518,0.5127642 0.31168,1.1863956 0.01006,0.1608672 0.01006,0.4323306 0,0.2614092 -0.01006,0.4323306 -0.03016,0.6635771 -0.301626,1.1863961 -0.271463,0.512764 -0.784227,0.804336 -0.512765,0.291571 -1.276884,0.291571 z m 0,-0.774173 q 0.623361,0 0.995366,-0.392114 0.372005,-0.402168 0.402168,-1.1662871 0.01005,-0.150813 0.01005,-0.3820596 0,-0.2312466 -0.01005,-0.3820596 -0.03016,-0.7641192 -0.402168,-1.156233 -0.372005,-0.402168 -0.995366,-0.402168 -0.62336,0 -1.00542,0.402168 -0.372005,0.3921138 -0.392114,1.156233 -0.01005,0.150813 -0.01005,0.3820596 0,0.2312466 0.01005,0.3820596 0.02011,0.7641191 0.392114,1.1662871 0.38206,0.392114 1.00542,0.392114 z"
         id="path8417"
         style="fill:#000000;fill-opacity:0.7;stroke:none" />
      <path
         d="m 42.898552,12.121368 q -0.764119,0 -1.276883,-0.291571 -0.512765,-0.291572 -0.784228,-0.804336 -0.271463,-0.522819 -0.301626,-1.1863961 -0.01005,-0.1709214 -0.01005,-0.4323306 0,-0.2714634 0.01005,-0.4323306 0.03016,-0.6736314 0.301626,-1.1863956 0.281518,-0.5127642 0.794282,-0.804336 0.512764,-0.2915719 1.266829,-0.2915719 0.754065,0 1.266829,0.2915719 0.512765,0.2915718 0.784228,0.804336 0.281518,0.5127642 0.31168,1.1863956 0.01005,0.1608672 0.01005,0.4323306 0,0.2614092 -0.01005,0.4323306 -0.03016,0.6635771 -0.301626,1.1863961 -0.271463,0.512764 -0.784227,0.804336 -0.512765,0.291571 -1.276884,0.291571 z m 0,-0.774173 q 0.623361,0 0.995366,-0.392114 0.372005,-0.402168 0.402168,-1.1662871 0.01005,-0.150813 0.01005,-0.3820596 0,-0.2312466 -0.01005,-0.3820596 -0.03016,-0.7641192 -0.402168,-1.156233 -0.372005,-0.402168 -0.995366,-0.402168 -0.62336,0 -1.00542,0.402168 -0.372005,0.3921138 -0.392114,1.156233 -0.01005,0.150813 -0.01005,0.3820596 0,0.2312466 0.01005,0.3820596 0.02011,0.7641191 0.392114,1.1662871 0.38206,0.392114 1.00542,0.392114 z"
         id="path8419"
         style="fill:#000000;fill-opacity:0.7;stroke:none" />
      <path
         d="m 48.5201,12.020826 q -0.563035,0 -0.914932,-0.211138 -0.351897,-0.221192 -0.512765,-0.613306 -0.160867,-0.402168 -0.160867,-0.945095 V 7.5969783 h -0.784227 q -0.100542,0 -0.170922,-0.060325 -0.06033,-0.070379 -0.06033,-0.1709214 v -0.341843 q 0,-0.100542 0.06033,-0.1608672 0.07038,-0.070379 0.170922,-0.070379 h 0.784227 V 5.1135908 q 0,-0.100542 0.06032,-0.1608672 0.07038,-0.070379 0.170922,-0.070379 h 0.472547 q 0.100542,0 0.160867,0.070379 0.07038,0.060325 0.07038,0.1608672 v 1.6790515 h 1.246721 q 0.100542,0 0.160867,0.070379 0.07038,0.060325 0.07038,0.1608672 v 0.3418428 q 0,0.100542 -0.07038,0.1709214 -0.06033,0.060325 -0.160867,0.060325 h -1.246721 v 2.5839293 q 0,0.472547 0.160867,0.744011 0.160867,0.271463 0.573089,0.271463 h 0.613307 q 0.100542,0 0.160867,0.07038 0.07038,0.06033 0.07038,0.160868 v 0.361951 q 0,0.100542 -0.07038,0.170921 -0.06032,0.06032 -0.160867,0.06032 z"
         id="path8421"
         style="fill:#000000;fill-opacity:0.7;stroke:none" />
      <path
         d="m 50.651598,12.020826 q -0.100542,0 -0.170921,-0.06032 -0.06033,-0.07038 -0.06033,-0.170921 V 5.1135908 q 0,-0.100542 0.06033,-0.1608672 0.07038,-0.070379 0.170921,-0.070379 h 0.50271 q 0.110596,0 0.170921,0.070379 0.06033,0.060325 0.06033,0.1608672 v 2.3426287 q 0.271463,-0.3418428 0.663577,-0.552981 0.392114,-0.2111383 0.995366,-0.2111383 0.653523,0 1.105962,0.2915719 0.462493,0.2815176 0.69374,0.7942818 0.2413,0.50271 0.2413,1.1763414 V 11.78958 q 0,0.100542 -0.06033,0.170921 -0.06032,0.06032 -0.170921,0.06032 h -0.50271 q -0.100542,0 -0.170922,-0.06032 -0.06032,-0.07038 -0.06032,-0.170921 V 9.0045663 q 0,-0.703794 -0.341843,-1.0959078 -0.341842,-0.402168 -1.00542,-0.402168 -0.62336,0 -1.00542,0.402168 -0.382059,0.3921138 -0.382059,1.0959078 V 11.78958 q 0,0.100542 -0.06033,0.170921 -0.06032,0.06032 -0.170921,0.06032 z"
         id="path8423"
         style="fill:#000000;fill-opacity:0.7;stroke:none" />
      <path
         d="m 56.764545,12.020826 q -0.100542,0 -0.170921,-0.06032 -0.06033,-0.07038 -0.06033,-0.170921 V 7.0238889 q 0,-0.100542 0.06033,-0.1608672 0.07038,-0.070379 0.170921,-0.070379 h 0.482602 q 0.100542,0 0.160867,0.070379 0.06032,0.060325 0.06032,0.1608672 V 11.78958 q 0,0.100542 -0.06032,0.170921 -0.06032,0.06032 -0.160867,0.06032 z m -0.08043,-6.2034412 q -0.100542,0 -0.170921,-0.060325 -0.06032,-0.070379 -0.06032,-0.1709214 v -0.542927 q 0,-0.100542 0.06032,-0.1608672 0.07038,-0.070379 0.170921,-0.070379 h 0.633415 q 0.100542,0 0.160867,0.070379 0.07038,0.060325 0.07038,0.1608672 v 0.5429268 q 0,0.100542 -0.07038,0.1709214 -0.06032,0.060325 -0.160867,0.060325 z"
         id="path8425"
         style="fill:#000000;fill-opacity:0.7;stroke:none" />
      <path
         d="m 61.062714,12.121368 q -1.035582,0 -1.648889,-0.633414 -0.613306,-0.643469 -0.673631,-1.7494311 -0.01005,-0.1307046 -0.01005,-0.3317886 0,-0.2111382 0.01005,-0.3418428 0.04022,-0.7138482 0.331789,-1.2467208 0.291571,-0.5429268 0.794281,-0.8344986 0.512765,-0.2915719 1.19645,-0.2915719 0.764119,0 1.276884,0.3217345 0.522818,0.3217344 0.794281,0.9149322 0.271464,0.5931978 0.271464,1.3874796 v 0.1709214 q 0,0.1105962 -0.07038,0.1709214 -0.06032,0.060325 -0.160867,0.060325 h -3.478753 q 0,0.010054 0,0.040217 0,0.030163 0,0.050271 0.02011,0.4122227 0.180976,0.7741737 0.160867,0.351897 0.462493,0.573089 0.301626,0.221193 0.723902,0.221193 0.361951,0 0.603252,-0.110597 0.241301,-0.110596 0.392114,-0.2413 0.150813,-0.140759 0.201084,-0.211139 0.09049,-0.130704 0.140759,-0.150813 0.05027,-0.03016 0.160867,-0.03016 h 0.482602 q 0.100542,0 0.160867,0.06032 0.07038,0.05027 0.06032,0.150813 -0.01005,0.150813 -0.160867,0.372005 -0.150813,0.211139 -0.432331,0.422277 -0.281517,0.211138 -0.683685,0.351897 -0.402168,0.130704 -0.924987,0.130704 z M 59.695343,9.0246747 h 2.754851 v -0.030163 q 0,-0.452439 -0.170922,-0.804336 -0.160867,-0.351897 -0.472547,-0.552981 -0.31168,-0.2111382 -0.744011,-0.2111382 -0.43233,0 -0.744011,0.2111382 -0.301626,0.201084 -0.462493,0.552981 -0.160867,0.351897 -0.160867,0.804336 z"
         id="path8427"
         style="fill:#000000;fill-opacity:0.7;stroke:none" />
    </g>
    <path
       id="path7568"
       style="fill:#000000;fill-opacity:0.5;stroke:none;stroke-width:0.999999;stroke-linecap:round;stroke-linejoin:round;stroke-miterlimit:4;stroke-dasharray:none;filter:url(#filter7595)"
       d="M 12,8 C 7.5680001,8 4,11.568 4,16 v 4 16 4 c 0,4.432003 3.5680005,8 8,8 v 8 4 L 28,48 h 24 c 0.1385,0 0.275379,-0.0029 0.412109,-0.0098 C 56.650738,47.776761 60,44.293502 60,40 V 36 20 16 C 60,11.568 56.431999,8 52,8 Z"
       transform="scale(0.26458333)" />
    <path
       id="path7856"
       style="fill:#000000;fill-opacity:0.7;stroke:none;stroke-width:0.999999;stroke-linecap:round;stroke-linejoin:round;stroke-miterlimit:4;stroke-dasharray:none;filter:url(#filter7595)"
       d="M 12,8 C 7.5680001,8 4,11.568 4,16 v 4 16 4 c 0,4.432003 3.5680005,8 8,8 v 8 4 L 28,48 h 24 c 0.1385,0 0.275379,-0.0029 0.412109,-0.0098 C 56.650738,47.776761 60,44.293502 60,40 V 36 20 16 C 60,11.568 56.431999,8 52,8 Z"
       transform="matrix(0.26458333,0,0,0.26458333,0,1.0583333)" />
    <path
       id="rect852"
       style="fill:url(#linearGradient4390);fill-opacity:1;stroke:none;stroke-width:0.264583;stroke-linecap:round;stroke-linejoin:round;stroke-miterlimit:4;stroke-dasharray:none"
       d="m 3.1749999,2.1166667 c -1.1726333,0 -2.1166666,0.9440333 -2.1166666,2.1166666 v 6.3500007 c 0,1.172633 0.9440333,2.116666 2.1166666,2.116666 v 3.175 L 7.4083332,12.7 H 13.758333 C 14.930966,12.7 15.875,11.755967 15.875,10.583334 V 4.2333333 C 15.875,3.0607 14.930966,2.1166667 13.758333,2.1166667 Z" />
    <path
       id="path5998"
       style="fill:#111111;fill-opacity:1;stroke:none;stroke-width:0.264583;stroke-linecap:round;stroke-linejoin:round;stroke-miterlimit:4;stroke-dasharray:none"
       d="m 1.0583332,9.5249997 v 1.0583333 c 0,1.172634 0.9440334,2.116667 2.1166666,2.116667 v -1.058333 c -1.1726332,0 -2.1166666,-0.944034 -2.1166666,-2.1166673 z m 14.8166668,0 c 0,1.1726333 -0.944034,2.1166673 -2.116667,2.1166673 H 7.4083331 l -4.2333333,3.175 V 15.875 L 7.4083331,12.7 h 6.3499999 c 1.172633,0 2.116667,-0.944033 2.116667,-2.116667 z" />
    <path
       style="fill:#777777;fill-opacity:1;stroke:none;stroke-width:0.264583;stroke-linecap:round;stroke-linejoin:round;stroke-miterlimit:4;stroke-dasharray:none"
       d="m 3.1749999,2.1166667 c -1.1726333,0 -2.1166666,0.9440333 -2.1166666,2.1166666 V 5.2916667 C 1.0583333,4.1190333 2.0023667,3.175 3.1749999,3.175 H 13.758333 c 1.172634,0 2.116667,0.9440333 2.116667,2.1166667 V 4.2333333 C 15.875,3.0607 14.930966,2.1166667 13.758333,2.1166667 Z"
       id="path5800" />
    <rect
       style="fill:url(#radialGradient4099);fill-opacity:1;stroke:none;stroke-width:0.529167;stroke-linecap:round;stroke-linejoin:round"
       id="rect966"
       width="9.5249996"
       height="1.0583333"
       x="3.175"
       y="5.2916665"
       ry="0.52916664"
       rx="0.52916664" />
    <rect
       style="fill:url(#radialGradient6771);fill-opacity:1;stroke:none;stroke-width:0.529167;stroke-linecap:round;stroke-linejoin:round"
       id="rect966-3"
       width="7.4083328"
       height="1.0583333"
       x="3.1750002"
       y="8.4666662"
       ry="0.52916664"
       rx="0.52916664" />
    <text
       xml:space="preserve"
       style="font-style:normal;font-variant:normal;font-weight:normal;font-stretch:normal;font-size:10.0542px;line-height:1.25;font-family:Rubik;-inkscape-font-specification:Rubik;fill:#efefef;fill-opacity:1;stroke:#111111;stroke-width:0.264583;stroke-miterlimit:4;stroke-dasharray:none;stroke-opacity:1"
       x="19.049999"
       y="10.962494"
       id="text21205"><tspan
         sodipodi:role="line"
         id="tspan21203"
         style="font-style:normal;font-variant:normal;font-weight:normal;font-stretch:normal;font-size:10.0542px;font-family:Rubik;-inkscape-font-specification:Rubik;fill:#efefef;fill-opacity:1;stroke:#111111;stroke-width:0.264583;stroke-miterlimit:4;stroke-dasharray:none;stroke-opacity:1"
         x="19.049999"
         y="10.962494">Smoothie</tspan></text>
  </g>
</svg>
